<svg xmlns="http://www.w3.org/2000/svg" xml:space="preserve" fill="#fff" stroke="#fff" stroke-width="0" viewBox="-23 -23 504 504">
  <g fill="#0277bd" stroke-linecap="round" stroke-linejoin="round" stroke-width="56.8">
    <path d="M229 29 21 74l208 52 208-52-208-45zm8 77c-40 0-66-12-66-30 0-19 28-32 71-32 15 0 27 2 34 3l-6 9c-5-2-15-3-28-3-30 0-47 10-47 22 0 14 20 23 46 23 14 0 23-2 30-3l4 8c-6 1-20 3-38 3zM0 373l222 56V138L0 82v291zm102-174c-11-3-22-2-30 2l-5-19c9-5 23-7 38-3 35 10 44 44 44 74v57c0 13 0 26 2 36l-19-5-2-20h-1c-6 10-19 17-35 13-24-7-36-31-36-53 0-37 25-50 70-37v-3c0-13-3-36-26-42z"/>
    <path d="M79 283c0 18 10 29 20 32 15 4 25-5 28-17 1-3 2-6 1-9l1-26c-23-7-49-9-50 20zm279-48c-14 3-28 16-32 34l-1 9v22l1 8c4 14 16 22 32 19 22-5 35-26 35-54 0-25-12-43-35-38z"/>
    <path d="M235 138v291l223-56V82l-223 56zm127 206c-17 3-30-1-39-15h-1l-1 21-18 3 1-31V174l21-4v76h0c8-15 21-27 40-30 29-7 50 14 50 51 0 44-27 71-53 77z"/>
  </g>
  <path fill="#0277bd" stroke="none" d="M229 29 21 74l208 52 208-52-208-45zm8 77c-40 0-66-12-66-30 0-19 28-32 71-32 15 0 27 2 34 3l-6 9c-5-2-15-3-28-3-30 0-47 10-47 22 0 14 20 23 46 23 14 0 23-2 30-3l4 8c-6 1-20 3-38 3zM0 373l222 56V138L0 82v291zm102-174c-11-3-22-2-30 2l-5-19c9-5 23-7 38-3 35 10 44 44 44 74v57c0 13 0 26 2 36l-19-5-2-20h-1c-6 10-19 17-35 13-24-7-36-31-36-53 0-37 25-50 70-37v-3c0-13-3-36-26-42z"/>
  <path fill="#0277bd" stroke="none" d="M79 283c0 18 10 29 20 32 15 4 25-5 28-17 1-3 2-6 1-9l1-26c-23-7-49-9-50 20zm279-48c-14 3-28 16-32 34l-1 9v22l1 8c4 14 16 22 32 19 22-5 35-26 35-54 0-25-12-43-35-38z"/>
  <path fill="#0277bd" stroke="none" d="M235 138v291l223-56V82l-223 56zm127 206c-17 3-30-1-39-15h-1l-1 21-18 3 1-31V174l21-4v76c8-15 21-27 40-30 29-7 50 14 50 51 0 44-27 71-53 77z"/>
</svg>
